<?xml version="1.0" standalone="no"?>
<!DOCTYPE svg PUBLIC "-//W3C//DTD SVG 20010904//EN"
 "http://www.w3.org/TR/2001/REC-SVG-20010904/DTD/svg10.dtd">
<svg version="1.0" xmlns="http://www.w3.org/2000/svg"
 width="512.000000pt" height="512.000000pt" viewBox="0 0 512.000000 512.000000"
 preserveAspectRatio="xMidYMid meet">
<metadata>
Created by potrace 1.14, written by Peter Selinger 2001-2017
</metadata>
<g transform="translate(0.000000,512.000000) scale(0.100000,-0.100000)"
fill="#000000" stroke="none">
<path d="M2110 5064 c0 -8 14 -32 30 -53 42 -52 63 -127 63 -221 -1 -79 -10
-117 -49 -190 -85 -158 -95 -210 -54 -290 21 -42 22 -45 5 -55 -42 -25 -104
-88 -110 -112 -3 -15 -17 -37 -31 -50 -13 -12 -24 -26 -24 -32 0 -11 -36 -25
-47 -18 -5 3 -30 8 -58 11 -27 3 -63 8 -80 11 -16 3 -41 8 -54 10 -64 11 -128
-60 -138 -152 -5 -54 13 -93 75 -158 114 -121 197 -153 285 -110 24 12 29 12
33 0 11 -27 -25 -58 -92 -81 -67 -24 -203 -93 -229 -116 -29 -27 -44 -38 -49
-38 -7 0 -84 -69 -110 -99 -12 -13 -34 -38 -49 -55 -41 -46 -110 -151 -150
-231 -43 -86 -88 -195 -80 -195 3 0 0 -7 -7 -15 -7 -8 -9 -15 -5 -15 4 0 3 -6
-3 -12 -5 -7 -13 -29 -16 -48 -3 -19 -10 -60 -16 -90 -29 -149 -31 -357 -5
-480 2 -14 10 -50 16 -80 46 -223 182 -469 348 -628 143 -137 353 -245 516
-266 28 -3 74 -9 102 -12 46 -6 273 13 273 22 0 2 -17 66 -39 141 -21 76 -42
156 -46 178 -14 83 -8 295 11 358 3 11 7 29 9 40 2 12 19 84 38 159 34 134 37
140 120 265 47 70 95 138 106 150 12 12 21 25 21 27 0 8 128 136 135 136 3 0
23 11 45 25 22 14 40 23 40 20 0 -3 39 14 88 39 48 24 107 50 132 56 25 6 83
23 130 37 159 47 175 52 210 56 20 2 45 9 55 15 11 7 61 18 112 27 88 14 164
47 215 92 9 8 38 16 65 17 100 5 141 58 129 165 -8 69 -8 103 0 162 5 42 3 50
-26 82 -29 34 -62 50 -120 61 -44 7 -72 22 -228 115 -83 50 -156 91 -161 91
-5 0 -11 4 -13 9 -3 9 -142 101 -152 101 -3 0 -43 24 -88 54 -69 44 -88 62
-113 107 -34 64 -47 76 -140 131 -58 35 -135 95 -224 175 -13 11 -10 18 17 52
17 22 37 51 43 65 7 14 15 26 19 26 6 0 15 30 20 65 1 3 6 24 13 47 21 74 11
187 -24 264 -31 69 -69 83 -50 18 8 -30 7 -126 -3 -178 -9 -52 -54 -129 -108
-190 -57 -62 -52 -61 -128 -41 -21 6 -104 16 -145 19 -59 3 -62 9 -37 88 18
59 22 158 8 248 -11 67 -72 184 -122 232 -58 56 -104 75 -104 42z"/>
<path d="M4222 2947 c-81 -134 -70 -259 32 -359 29 -29 59 -44 123 -65 47 -14
98 -37 113 -50 34 -28 45 -18 27 27 -3 8 -11 33 -18 55 -17 57 -54 119 -115
198 -70 90 -111 172 -113 230 -2 29 -16 19 -49 -36z"/>
<path d="M3810 2864 c0 -66 54 -148 125 -190 40 -23 127 -40 145 -29 14 9 -22
94 -57 135 -45 52 -100 81 -185 96 -22 4 -28 1 -28 -12z"/>
<path d="M3002 2692 c-93 -35 -187 -135 -194 -207 -5 -48 24 -42 84 17 62 61
127 88 196 82 48 -5 133 -64 166 -116 19 -29 24 -77 10 -99 -7 -11 -37 27 -54
68 -23 55 -105 72 -149 32 -35 -33 -29 -45 57 -114 39 -32 40 -38 5 -56 -16
-7 -53 -29 -83 -49 -30 -19 -64 -36 -75 -38 -35 -5 -159 -70 -190 -99 -51 -49
-83 -90 -114 -145 -139 -253 -105 -575 83 -762 53 -54 148 -121 178 -126 4 -1
28 -8 52 -15 46 -14 198 -16 211 -3 4 4 -2 43 -14 87 -12 44 -22 100 -23 123
0 35 10 130 17 158 14 54 31 102 45 130 31 60 109 160 141 179 48 29 116 15
199 -44 25 -17 59 -35 75 -39 16 -4 41 -16 57 -27 29 -21 128 -35 128 -18 0 5
7 9 15 9 16 0 31 43 20 59 -3 6 2 11 13 11 48 0 78 89 47 137 -10 15 -22 32
-27 38 -5 5 -34 44 -64 85 -31 41 -61 82 -67 90 -39 48 -57 81 -72 130 -9 30
-19 62 -22 70 -4 8 -8 23 -9 33 -5 24 -53 98 -78 121 -12 10 -43 33 -71 51
-52 34 -63 46 -105 105 -35 50 -40 54 -106 88 -90 47 -115 55 -209 66 -16 2
-49 -4 -73 -12z"/>
<path d="M3953 2533 c-52 -18 -105 -76 -123 -135 -17 -54 -48 -118 -68 -141
-18 -20 -14 -26 24 -33 16 -3 45 -9 64 -15 64 -18 141 -21 189 -8 57 16 81 30
154 92 66 56 114 77 163 70 40 -5 41 -2 10 43 -35 52 -119 103 -205 125 -87
22 -150 23 -208 2z"/>
<path d="M4289 2251 c-38 -12 -72 -32 -90 -53 -9 -10 -21 -18 -28 -18 -6 0
-11 -6 -11 -14 0 -7 -6 -19 -14 -25 -7 -6 -23 -45 -35 -86 -12 -41 -33 -90
-46 -110 -29 -42 -22 -44 70 -14 59 19 168 81 202 115 47 46 193 122 212 109
5 -2 16 1 26 9 16 11 14 14 -21 35 -94 56 -190 74 -265 52z"/>
<path d="M2225 988 c-52 -11 -81 -25 -133 -66 -35 -28 -86 -102 -84 -122 0 -3
-5 -14 -10 -24 -29 -54 -1 -196 52 -263 l19 -25 -34 -67 c-19 -37 -35 -71 -35
-75 0 -4 -6 -14 -13 -21 -10 -9 -14 -43 -15 -106 -1 -50 -6 -97 -12 -104 -18
-22 -8 -76 16 -87 21 -10 63 3 65 20 0 4 2 15 4 25 2 10 -6 28 -17 39 -17 17
-21 35 -23 97 -2 71 1 81 42 164 24 48 46 87 49 87 13 0 44 -21 44 -30 0 -5
-13 -38 -30 -72 -16 -34 -30 -70 -30 -80 0 -10 -5 -18 -10 -18 -6 0 -14 -10
-19 -22 -20 -54 27 -94 74 -64 31 20 33 58 4 85 l-21 20 33 70 c29 61 36 70
54 64 11 -3 28 -6 37 -5 23 1 24 -8 23 -139 -1 -95 -4 -120 -18 -133 -32 -32
-19 -80 23 -90 51 -12 86 48 50 84 -20 20 -22 32 -21 142 0 66 2 122 3 123 2
2 12 5 22 7 17 2 20 -3 22 -37 1 -22 7 -53 13 -69 9 -22 9 -37 1 -57 -22 -53
28 -96 75 -65 40 26 25 96 -20 96 -7 0 -16 13 -20 30 -4 16 -10 32 -14 34 -4
3 -5 21 -3 40 3 30 11 39 39 53 34 16 36 16 49 -2 10 -13 11 -22 4 -29 -14
-14 -13 -59 2 -74 14 -14 57 -16 76 -3 7 4 14 17 15 28 1 19 7 20 95 17 139
-4 175 15 175 94 0 65 -31 88 -121 91 -44 1 -71 7 -78 16 -6 8 -11 63 -12 125
-1 107 0 111 24 126 27 19 93 21 123 4 23 -12 23 -13 26 -140 2 -113 2 -112
23 -108 15 3 17 17 18 108 1 58 -2 114 -6 125 -6 16 -1 22 22 32 20 9 28 18
26 30 -2 10 -11 16 -19 14 -16 -4 -66 -9 -162 -14 -57 -4 -71 -8 -92 -31 -26
-28 -26 -27 -27 -188 -1 -108 22 -135 121 -136 72 -1 94 -14 94 -58 0 -43 -26
-54 -119 -52 -55 1 -88 -3 -98 -11 -13 -11 -17 -11 -22 3 -3 9 -14 16 -24 16
-10 0 -25 13 -33 29 -14 27 -13 30 19 64 38 40 36 47 -13 38 -5 -1 -25 -17
-46 -36 -73 -67 -197 -79 -287 -28 -54 32 -83 63 -111 123 -27 57 -23 154 9
217 21 39 86 103 106 102 5 0 12 4 15 10 4 5 31 14 61 19 84 13 165 -14 228
-75 7 -7 25 -13 39 -13 23 0 24 2 12 18 -25 32 -73 72 -86 72 -7 0 -13 4 -13
9 0 21 -135 42 -195 29z m298 -622 c7 -17 -22 -31 -36 -17 -5 5 -6 14 -3 20
10 16 33 14 39 -3z m-409 -143 c8 -19 -14 -37 -28 -23 -10 10 -1 40 13 40 5 0
12 -8 15 -17z m299 3 c8 -21 -17 -40 -31 -23 -9 10 -8 17 0 25 16 16 25 15 31
-2z m-126 -122 c7 -20 -8 -36 -25 -25 -14 8 -6 41 9 41 5 0 12 -7 16 -16z
m-277 -26 c0 -11 -7 -18 -20 -18 -18 0 -27 19 -15 32 12 12 35 3 35 -14z"/>
<path d="M3015 870 c-46 -18 -50 -34 -50 -201 0 -125 2 -160 13 -164 8 -3 17
-3 22 0 4 3 8 72 8 155 -1 164 4 180 53 180 32 0 71 -32 64 -52 -8 -21 11 -42
30 -34 23 8 14 71 -14 99 -21 21 -92 31 -126 17z"/>
<path d="M3294 863 c-16 -8 -33 -22 -39 -31 -12 -22 -14 -251 -1 -279 5 -13
15 -23 23 -23 7 0 13 -5 13 -11 0 -6 7 -9 15 -5 8 3 15 2 15 -3 0 -14 116 -4
142 13 34 22 38 40 38 174 0 119 -6 144 -42 163 -34 18 -131 20 -164 2z m142
-37 c18 -13 20 -25 19 -135 0 -73 -5 -125 -11 -131 -17 -17 -83 -22 -120 -10
l-34 12 -1 91 c-2 136 1 160 19 174 23 17 103 16 128 -1z"/>
<path d="M2111 704 l1 -134 26 0 27 0 -2 107 c-1 60 -2 120 -2 134 -1 21 -6
27 -26 27 l-24 0 0 -134z"/>
<path d="M2299 830 c-2 -16 -5 -23 -27 -73 -12 -27 -22 -51 -22 -53 0 -3 -8
-24 -19 -47 -35 -78 -35 -87 -7 -87 17 0 29 8 38 28 12 24 19 27 69 30 54 3
57 2 68 -27 12 -27 61 -51 61 -30 0 12 -27 89 -47 135 -9 21 -17 41 -18 44 -1
3 -7 18 -13 33 -7 16 -12 35 -12 43 0 16 -69 20 -71 4z m55 -101 c9 -22 14
-44 11 -49 -10 -15 -65 -8 -65 8 0 22 23 82 31 82 4 0 14 -18 23 -41z"/>
</g>
</svg>
